<?xml version="1.0" standalone="no"?>
<!DOCTYPE svg PUBLIC "-//W3C//DTD SVG 20010904//EN"
 "http://www.w3.org/TR/2001/REC-SVG-20010904/DTD/svg10.dtd">
<svg version="1.0" xmlns="http://www.w3.org/2000/svg"
 width="512.000000pt" height="512.000000pt" viewBox="0 0 512.000000 512.000000"
 preserveAspectRatio="xMidYMid meet">
<metadata>
Created by potrace 1.11, written by Peter Selinger 2001-2013
</metadata>
<g transform="translate(0.000000,512.000000) scale(0.100000,-0.100000)"
fill="#000000" stroke="none">
<path d="M2428 5055 c-2 -1 -44 -5 -95 -9 -159 -11 -409 -63 -568 -118 -485
-168 -895 -463 -1197 -863 -244 -324 -419 -732 -473 -1105 -3 -19 -7 -48 -10
-65 -25 -162 -25 -547 -1 -660 2 -11 7 -42 10 -70 39 -290 175 -651 349 -930
57 -92 59 -94 170 -235 415 -527 1055 -870 1732 -927 174 -15 452 -6 591 18
32 6 75 13 94 16 80 12 345 86 405 113 11 5 45 19 75 30 54 21 229 107 305
150 94 53 288 192 379 272 353 308 612 704 748 1138 34 109 77 294 84 360 3
25 7 51 10 58 16 51 24 410 11 552 -61 707 -419 1348 -992 1780 -60 45 -123
89 -139 97 -17 9 -33 19 -36 22 -16 21 -276 154 -390 199 -297 118 -570 171
-902 177 -86 1 -158 1 -160 0z"/>
</g>
</svg>
